<svg width="202" height="63" viewBox="0 0 202 63" fill="none" xmlns="http://www.w3.org/2000/svg">
<g id="Group">
<path id="Vector" d="M49.7502 18.8838H60.2446C67.258 18.8838 71.57 22.6243 71.57 28.5987C71.57 34.7809 67.1022 38.4175 60.2446 38.4175H53.8543V49.7429H49.6982C49.7502 49.7429 49.7502 18.8838 49.7502 18.8838ZM53.9582 22.3126V35.0926H60.1407C64.7124 35.0926 67.4139 32.6509 67.4139 28.7026C67.4139 24.8582 64.6604 22.3126 60.2965 22.3126C60.2446 22.3126 53.9582 22.3126 53.9582 22.3126Z" fill="black"/>
<path id="Vector_2" d="M74.5308 33.482C75.31 28.235 78.7908 25.0659 84.6613 25.0659C91.0513 25.0659 94.1684 28.8064 94.1684 34.4691V43.9243C94.1684 46.6777 94.3762 48.3921 95.0516 49.7428H90.8435C90.3759 48.8077 90.2201 47.405 90.1681 45.9504C88.0901 49.0155 84.921 50.2624 81.9598 50.2624C76.9725 50.2624 73.6476 47.9245 73.6476 43.4048C73.6476 40.0799 75.4659 37.6901 78.9986 36.5472C82.2715 35.4562 85.5445 35.1964 90.1681 35.1445V34.625C90.1681 30.7806 88.3498 28.6506 84.2457 28.6506C80.7649 28.6506 78.9986 30.5728 78.4271 33.6379H74.4788V33.482H74.5308ZM82.3754 46.7297C86.8432 46.7297 90.1681 43.2489 90.1681 39.1448V38.0018C79.9857 38.0538 77.6998 40.2877 77.6998 43.197C77.6998 45.4828 79.57 46.7297 82.3754 46.7297Z" fill="black"/>
<path id="Vector_3" d="M99.4683 28.8064H96.0915V25.5854H99.4163V19.0396H103.417V25.6374H108.664V28.8584H103.417V42.7813C103.417 45.6387 104.3 47.0414 107.832 47.0414H108.612V49.8987C108.144 50.1065 107.157 50.2104 106.014 50.2104C101.546 50.2104 99.4163 47.8206 99.4163 42.7294L99.4683 28.8064Z" fill="black"/>
<path id="Vector_4" d="M110.69 17.1172H114.69V49.7427H110.69V17.1172Z" fill="black"/>
<path id="Vector_5" d="M117.963 59.8219V56.7568H119.158C122.067 56.7568 122.898 56.1334 125.288 50.7822L126.067 48.9119L116.248 25.6377H120.56L127.106 41.4829L128.197 44.7039L129.288 41.4829L135.626 25.6377H139.678L128.509 52.8085C126.119 58.6271 124.509 60.1337 120.404 60.1337C119.365 60.1337 118.43 59.9258 117.963 59.8219Z" fill="black"/>
<path id="Vector_6" d="M140.043 28.8064H136.718V25.5854H140.043V19.0396H144.043V25.6374H149.29V28.8584H144.043V42.7813C144.043 45.6387 144.926 47.0414 148.459 47.0414H149.238V49.8987C148.77 50.1065 147.783 50.2104 146.64 50.2104C142.173 50.2104 140.043 47.8206 140.043 42.7294V28.8064Z" fill="black"/>
<path id="Vector_7" d="M151.264 17.1172H155.264V22.4162H151.264V17.1172ZM151.264 25.6372H155.264V49.7427H151.264V25.6372Z" fill="black"/>
<path id="Vector_8" d="M175.681 33.898C175.006 30.2094 172.616 28.495 169.395 28.495C164.927 28.495 162.589 31.7679 162.589 37.6904C162.589 43.5609 165.031 46.8339 169.499 46.8339C172.72 46.8339 175.006 45.1195 175.785 41.6907H179.785C178.694 47.6131 174.746 50.2107 169.447 50.2107C162.589 50.2107 158.537 45.4831 158.537 37.6904C158.537 29.586 162.693 25.1182 169.395 25.1182C174.642 25.1182 178.85 28.1313 179.577 34.0019H175.629V33.898H175.681Z" fill="black"/>
<path id="Vector_9" d="M201.501 42.8853C201.501 47.3531 197.5 50.2104 191.838 50.2104C186.123 50.2104 182.175 47.457 181.24 41.7943H185.24C185.759 45.1192 188.305 46.9894 191.994 46.9894C195.578 46.9894 197.5 45.3789 197.5 43.145C197.5 36.5991 182.019 42.0021 182.019 32.0794C182.019 28.3908 184.876 25.0659 190.747 25.0659C195.942 25.0659 199.786 27.5076 200.566 33.482H196.565C195.942 29.7415 193.916 28.3389 190.487 28.3389C187.474 28.3389 185.759 29.7935 185.759 31.8196C185.915 38.4694 201.501 32.9625 201.501 42.8853Z" fill="black"/>
<path id="Vector_10" d="M18.4233 62.6266C17.3843 62.6266 16.3453 62.3669 15.4101 61.7954L5.59126 55.769C2.47416 53.8468 0.5 50.3661 0.5 46.6775V11.9219C0.5 9.79191 1.59099 7.92166 3.46125 6.88264C5.3315 5.84361 7.51348 5.89556 9.27983 6.98654L19.0987 12.961C22.2679 14.8832 24.1901 18.364 24.1901 22.0526V56.8081C24.1901 58.9381 23.0991 60.8083 21.2287 61.8474C20.3975 62.3669 19.4104 62.6266 18.4233 62.6266ZM6.31858 10.2075C5.90297 10.2075 5.59126 10.3634 5.43541 10.4154C5.17565 10.5712 4.55223 11.0388 4.55223 11.9219V46.6775C4.55223 48.9634 5.74711 51.1454 7.72129 52.3402L17.5401 58.3147C18.3194 58.7822 19.0467 58.5225 19.3065 58.3666C19.5663 58.2108 20.1897 57.7432 20.1897 56.86V22.1045C20.1897 19.8187 18.9948 17.6367 17.0206 16.4417L7.20177 10.4673C6.89004 10.2595 6.57834 10.2075 6.31858 10.2075Z" fill="#57DD2F"/>
<path id="Vector_11" d="M28.294 45.5347C27.255 45.5347 26.2159 45.275 25.2808 44.7035L15.4619 38.6771C12.2929 36.7547 10.3707 33.274 10.3707 29.5854V6.41511C10.3707 4.2851 11.4616 2.41485 13.3319 1.3758C15.2022 0.33677 17.3841 0.388721 19.1505 1.47972L28.9694 7.45413C32.1384 9.37636 34.0606 12.8571 34.0606 16.5457V39.7162C34.0606 41.8462 32.9696 43.7164 31.0994 44.7555C30.2162 45.275 29.2811 45.5347 28.294 45.5347ZM16.1373 4.64876C15.7217 4.64876 15.41 4.80461 15.2541 4.85656C14.9944 5.01242 14.3709 5.47998 14.3709 6.36315V29.5335C14.3709 31.8193 15.5658 34.0013 17.54 35.1962L27.3589 41.1708C28.1381 41.6384 28.8655 41.3786 29.1252 41.2228C29.385 41.0669 30.0084 40.5994 30.0084 39.7162V16.5457C30.0084 14.2598 28.8135 12.0778 26.8393 10.8829L17.0205 4.90852C16.7088 4.70071 16.3971 4.64876 16.1373 4.64876Z" fill="#57DD2F"/>
</g>
</svg>
